DataType=double
version=3
OpenSimVersion=4.2
endheader
time	ground_force_r_vx	ground_force_r_vy	ground_force_r_vz	ground_force_r_px	ground_force_r_py	ground_force_r_pz	ground_force_l_vx	ground_force_l_vy	ground_force_l_vz	ground_force_l_px	ground_force_l_py	ground_force_l_pz	ground_torque_r_x	ground_torque_r_y	ground_torque_r_z	ground_torque_l_x	ground_torque_l_y	ground_torque_l_z
1.140036668817004	0	0	0	0	0	0	-367.9450565503789	181.1632659736763	0	0	0	0	0	0	0	0	0	-0.4123023115898417
1.141396852161089	0	0	0	0	0	0	-836.1910880440017	387.1584595908967	0	0	0	0	0	0	0	0	0	-3.210001977684067
1.142757035505173	0	0	0	0	0	0	-1550.080101503738	713.2575243576948	0	0	0	0	0	0	0	0	0	-6.468124421233918
1.144117218849259	0	0	0	0	0	0	-2312.910345783885	1087.412682066307	0	0	0	0	0	0	0	0	0	-6.820751413286867
1.145477402193344	0	0	0	0	0	0	-2994.286472624895	1465.684403509844	0	0	0	0	0	0	0	0	0	-2.969659177297264
1.146837585537429	0	0	0	0	0	0	-3582.149081204042	1840.549649115638	0	0	0	0	0	0	0	0	0	4.374823934997439
1.148197768881514	0	0	0	0	0	0	-4037.471800074025	2203.444872534678	0	0	0	0	0	0	0	0	0	15.57324602835972
1.149557952225599	0	0	0	0	0	0	-4241.687898936315	2530.771655290647	0	0	0	0	0	0	0	0	0	32.17533005431628
1.150918135569684	0	0	0	0	0	0	-4134.151750515976	2811.603437527711	0	0	0	0	0	0	0	0	0	55.18232040298416
1.152278318913769	0	0	0	0	0	0	-3799.093657276676	3056.281547859503	0	0	0	0	0	0	0	0	0	83.79433640246135
1.153638502257854	0	0	0	0	0	0	-3435.08052131874	3301.771030556325	0	0	0	0	0	0	0	0	0	116.2200754708712
1.154998685601939	0	0	0	0	0	0	-2690.755753900838	3602.754151871279	0	0	0	0	0	0	0	0	0	159.3996781109912
1.156358868946024	0	0	0	0	0	0	-648.2585172156945	3960.63264070935	0	0	0	0	0	0	0	0	0	215.4752793622295
1.157719052290109	0	0	0	0	0	0	-566.2384329757087	4299.155255913121	0	0	0	0	0	0	0	0	0	243.9159370942664
1.159079235634194	0	0	0	0	0	0	-479.8793671022369	4539.405597441651	0	0	0	0	0	0	0	0	0	265.4071993361991
1.160439418978279	0	0	0	0	0	0	-415.5969699979275	4645.788480977671	0	0	0	0	0	0	0	0	0	277.7938407401286
1.161799602322364	0	0	0	0	0	0	-365.4848999283535	4679.334428134573	0	0	0	0	0	0	0	0	0	288.5219998704971
1.163159785666449	0	0	0	0	0	0	-346.2689436497084	4682.573173513459	0	0	0	0	0	0	0	0	0	302.9613013884673
1.164519969010534	0	0	0	0	0	0	-336.5459083454675	4661.471594394036	0	0	0	0	0	0	0	0	0	319.0440103407217
1.165880152354619	0	0	0	0	0	0	-324.3083308448177	4626.752483138956	0	0	0	0	0	0	0	0	0	334.3693619088334
1.167240335698704	0	0	0	0	0	0	-315.609025715437	4552.335012352152	0	0	0	0	0	0	0	0	0	347.8191435975474
1.168600519042789	0	0	0	0	0	0	-316.432308881958	4463.559673690098	0	0	0	0	0	0	0	0	0	361.4158608478114
1.169960702386874	0	0	0	0	0	0	-310.1430972403093	4402.180376122324	0	0	0	0	0	0	0	0	0	379.0312611974558
1.171320885730959	0	0	0	0	0	0	-312.26130379175	4344.817297099231	0	0	0	0	0	0	0	0	0	398.655011029079
1.172681069075044	0	0	0	0	0	0	-297.4543800156943	4271.7357534497	0	0	0	0	0	0	0	0	0	414.3230457870242
1.174041252419129	0	0	0	0	0	0	-260.9442643024248	4204.67363170199	0	0	0	0	0	0	0	0	0	425.2580273254159
1.175401435763214	0	0	0	0	0	0	-212.9356906190412	4136.062087972099	0	0	0	0	0	0	0	0	0	434.2196536765884
1.176761619107299	0	0	0	0	0	0	-177.6879539893714	4050.808749655755	0	0	0	0	0	0	0	0	0	441.5617125552336
1.178121802451384	0	0	0	0	0	0	-135.068786055047	3963.048219073195	0	0	0	0	0	0	0	0	0	448.0630243281519
1.179481985795469	0	0	0	0	0	0	-107.3122731976045	3869.900146937207	0	0	0	0	0	0	0	0	0	453.6164746218925
1.180842169139554	0	0	0	0	0	0	-76.92248181530189	3781.952934477612	0	0	0	0	0	0	0	0	0	459.5502965544302
1.182202352483639	0	0	0	0	0	0	-86.96037973411032	3705.574794887482	0	0	0	0	0	0	0	0	0	465.5443427127101
1.183562535827724	0	0	0	0	0	0	-92.63336060373371	3636.556538466967	0	0	0	0	0	0	0	0	0	472.1289480292374
1.184922719171809	0	0	0	0	0	0	-156.3580645931547	3577.435403320505	0	0	0	0	0	0	0	0	0	478.7344566796233
1.186282902515894	0	0	0	0	0	0	-167.4902146715525	3521.484574843704	0	0	0	0	0	0	0	0	0	488.1813223768859
1.187643085859979	0	0	0	0	0	0	-203.4348651197178	3461.376892974299	0	0	0	0	0	0	0	0	0	497.3332552535595
1.189003269204064	0	0	0	0	0	0	-205.5060679548683	3411.943561226033	0	0	0	0	0	0	0	0	0	507.5383967035033
1.190363452548149	0	0	0	0	0	0	-199.1274481870821	3375.084474617844	0	0	0	0	0	0	0	0	0	517.4332765906084
1.191723635892234	0	0	0	0	0	0	-172.8351789605334	3345.808335170596	0	0	0	0	0	0	0	0	0	527.6932863315176
1.193083819236319	0	0	0	0	0	0	-152.8583109911717	3308.603732833903	0	0	0	0	0	0	0	0	0	535.6289239566328
1.194444002580404	0	0	0	0	0	0	-99.94663246114237	3246.199373989968	0	0	0	0	0	0	0	0	0	540.2166879470569
1.195804185924489	0	0	0	0	0	0	-28.78989658898594	3150.272805875697	0	0	0	0	0	0	0	0	0	541.0297664330091
1.197164369268574	0	0	0	0	0	0	33.03112800436317	3095.900215844651	0	0	0	0	0	0	0	0	0	543.2758928136134
1.198524552612659	0	0	0	0	0	0	88.18192565271256	3109.340673965552	0	0	0	0	0	0	0	0	0	548.4267872699259
1.199884735956744	0	0	0	0	0	0	151.1337498632438	3127.552105955618	0	0	0	0	0	0	0	0	0	554.6110770483408
1.201244919300829	0	0	0	0	0	0	216.3980583590049	3144.133349557449	0	0	0	0	0	0	0	0	0	561.1023151965486
1.202605102644914	0	0	0	0	0	0	279.3731496320127	3158.350870110033	0	0	0	0	0	0	0	0	0	567.4053352482698
1.203965285988999	0	0	0	0	0	0	339.902143800534	3169.862714105647	0	0	0	0	0	0	0	0	0	573.3222242012853
1.205325469333085	0	0	0	0	0	0	401.7500981327415	3177.102272012253	0	0	0	0	0	0	0	0	0	578.5823238887831
1.206685652677169	0	0	0	0	0	0	464.3483410688243	3179.861515959561	0	0	0	0	0	0	0	0	0	583.105435954495
1.208045836021254	0	0	0	0	0	0	528.2235980574003	3179.736433233441	0	0	0	0	0	0	0	0	0	587.1603606880763
1.20940601936534	0	0	0	0	0	0	592.9348539070616	3176.634585489212	0	0	0	0	0	0	0	0	0	590.7276643469712
1.210766202709425	0	0	0	0	0	0	657.3999786059812	3170.075178327319	0	0	0	0	0	0	0	0	0	593.7697207129263
1.21212638605351	0	0	0	0	0	0	719.2451049275139	3159.682322065315	0	0	0	0	0	0	0	0	0	596.2125518706558
1.213486569397594	0	0	0	0	0	0	779.9214731919942	3146.232159798389	0	0	0	0	0	0	0	0	0	598.1801339814466
1.21484675274168	0	0	0	0	0	0	839.9276078220489	3130.48078763439	0	0	0	0	0	0	0	0	0	599.7757102283343
1.216206936085765	0	0	0	0	0	0	899.8711881828458	3110.50635003163	0	0	0	0	0	0	0	0	0	600.6464009662742
1.21756711942985	0	0	0	0	0	0	958.1823506015794	3086.975724196896	0	0	0	0	0	0	0	0	0	600.8452852391924
1.218927302773935	0	0	0	0	0	0	1013.885555234005	3060.549971017071	0	0	0	0	0	0	0	0	0	600.6035507165806
1.22028748611802	0	0	0	0	0	0	1063.537932759207	3029.139694955735	0	0	0	0	0	0	0	0	0	599.5933301382954
1.221647669462105	0	0	0	0	0	0	1105.309965483323	2992.808616634357	0	0	0	0	0	0	0	0	0	597.7883064868423
1.22300785280619	0	0	0	0	0	0	1138.861465436479	2951.016059403127	0	0	0	0	0	0	0	0	0	595.0739053335722
1.224368036150275	0	0	0	0	0	0	1164.201873037245	2904.134093714032	0	0	0	0	0	0	0	0	0	591.4563049971713
1.22572821949436	0	0	0	0	0	0	1182.328376628423	2852.747915362052	0	0	0	0	0	0	0	0	0	587.0167600714915
1.227088402838445	0	0	0	0	0	0	1191.799633818244	2796.590624303189	0	0	0	0	0	0	0	0	0	581.6529055978857
1.22844858618253	0	0	0	0	0	0	1193.356790889277	2734.9926831838	0	0	0	0	0	0	0	0	0	575.2468145534295
1.229808769526615	0	0	0	0	0	0	1192.271257517245	2663.759244196137	0	0	0	0	0	0	0	0	0	567.2280628133342
1.2311689528707	0	0	0	0	0	0	1191.402073275704	2571.865470564007	0	0	0	0	0	0	0	0	0	555.304205902142
1.232529136214785	0	0	0	0	0	0	1200.106443669041	2534.101154901596	0	0	0	0	0	0	0	0	0	549.7062224779099
1.23388931955887	0	0	0	0	0	0	1206.953550880133	2504.327891125294	0	0	0	0	0	0	0	0	0	545.3540767731968
1.235249502902955	0	0	0	0	0	0	1216.92497493744	2469.259427303821	0	0	0	0	0	0	0	0	0	540.3045494383749
1.23660968624704	0	0	0	0	0	0	1228.505254378457	2431.845746274399	0	0	0	0	0	0	0	0	0	534.9611550647397
1.237969869591125	0	0	0	0	0	0	1237.853680116044	2393.873722649005	0	0	0	0	0	0	0	0	0	529.4708254467523
1.23933005293521	0	0	0	0	0	0	1245.06660448784	2355.60219675729	0	0	0	0	0	0	0	0	0	523.8756100477912
1.240690236279295	0	0	0	0	0	0	1250.38856060259	2316.619876817874	0	0	0	0	0	0	0	0	0	518.0971757172553
1.24205041962338	0	0	0	0	0	0	1255.931600096792	2276.766566344898	0	0	0	0	0	0	0	0	0	512.2199167494319
1.243410602967465	0	0	0	0	0	0	1260.474008991344	2236.065677308966	0	0	0	0	0	0	0	0	0	506.1747746942534
1.24477078631155	0	0	0	0	0	0	1257.419220428978	2189.591855303703	0	0	0	0	0	0	0	0	0	498.5880788418227
1.246130969655635	0	0	0	0	0	0	1240.49472047146	2129.522788649687	0	0	0	0	0	0	0	0	0	487.5069071888653
1.24749115299972	0	0	0	0	0	0	1219.392547403662	2063.955936957304	0	0	0	0	0	0	0	0	0	475.066479922328
1.248851336343805	0	0	0	0	0	0	1202.491219865858	2002.292586310346	0	0	0	0	0	0	0	0	0	463.6254822734732
1.25021151968789	0	0	0	0	0	0	1184.626556633865	1941.61416699689	0	0	0	0	0	0	0	0	0	452.2687122200268
1.251571703031975	0	0	0	0	0	0	1160.405870540239	1873.148881544418	0	0	0	0	0	0	0	0	0	438.9326737701593
1.25293188637606	0	0	0	0	0	0	1135.720930247752	1800.681090543252	0	0	0	0	0	0	0	0	0	424.7722586124446
1.254292069720145	0	0	0	0	0	0	1115.029400500744	1736.193651531996	0	0	0	0	0	0	0	0	0	412.3708592917883
1.25565225306423	0	0	0	0	0	0	1093.759557273065	1676.466017519293	0	0	0	0	0	0	0	0	0	400.7470117738515
1.257012436408315	0	0	0	0	0	0	1069.718003724094	1616.083417100979	0	0	0	0	0	0	0	0	0	388.7026618364542
1.2583726197524	0	0	0	0	0	0	1040.949633872766	1551.464369516511	0	0	0	0	0	0	0	0	0	375.3932425363547
1.259732803096485	0	0	0	0	0	0	1003.893266400576	1475.799067436979	0	0	0	0	0	0	0	0	0	359.246297244043
1.26109298644057	0	0	0	0	0	0	957.1271719936829	1392.804186271515	0	0	0	0	0	0	0	0	0	340.7452428498154
1.262453169784655	0	0	0	0	0	0	900.64454320107	1309.443314966479	0	0	0	0	0	0	0	0	0	321.0361767057532
1.26381335312874	0	0	0	0	0	0	838.9877073374181	1224.055209930301	0	0	0	0	0	0	0	0	0	300.2392041046742
1.265173536472825	0	0	0	0	0	0	777.1505974140175	1131.243956760203	0	0	0	0	0	0	0	0	0	277.9812974050016
1.26653371981691	0	0	0	0	0	0	713.8185712322305	1036.530416447041	0	0	0	0	0	0	0	0	0	255.0860960975592
1.267893903160995	0	0	0	0	0	0	643.064956166489	957.4664269359877	0	0	0	0	0	0	0	0	0	233.7040348885899
1.26925408650508	0	0	0	0	0	0	531.3289707751965	853.4473010887667	0	0	0	0	0	0	0	0	0	202.9446288720216
1.270614269849165	0	0	0	0	0	0	372.46957548915	651.9765874677918	0	0	0	0	0	0	0	0	0	150.4022495325603
1.27197445319325	0	0	0	0	0	0	215.7255335860139	381.5360892982107	0	0	0	0	0	0	0	0	0	87.40425447366431
1.273334636537335	0	0	0	0	0	0	68.81981011627902	107.0203900675469	0	0	0	0	0	0	0	0	0	25.55357200134769
1.27469481988142	0	0	0	0	0	0	-1.832595886825179	-2.388436603139625	0	0	0	0	0	0	0	0	0	-0.6103257562539102
1.276055003225506	0	0	0	0	0	0	-1.440449733853122e-08	-5.664845082145859e-08	0	0	0	0	0	0	0	0	0	-1.022128652308998e-08
1.27741518656959	0	0	0	0	0	0	0	0	0	0	0	0	0	0	0	0	0	0
1.278775369913675	0	0	0	0	0	0	0	0	0	0	0	0	0	0	0	0	0	0
1.280135553257761	0	0	0	0	0	0	0	0	0	0	0	0	0	0	0	0	0	0
1.281495736601845	0	0	0	0	0	0	0	0	0	0	0	0	0	0	0	0	0	0
1.282855919945931	0	0	0	0	0	0	0	0	0	0	0	0	0	0	0	0	0	0
1.284216103290015	0	0	0	0	0	0	0	0	0	0	0	0	0	0	0	0	0	0
1.285576286634101	0	0	0	0	0	0	0	0	0	0	0	0	0	0	0	0	0	0
1.286936469978186	0	0	0	0	0	0	0	0	0	0	0	0	0	0	0	0	0	0
1.28829665332227	0	0	0	0	0	0	0	0	0	0	0	0	0	0	0	0	0	0
1.289656836666356	0	0	0	0	0	0	0	0	0	0	0	0	0	0	0	0	0	0
1.29101702001044	0	0	0	0	0	0	0	0	0	0	0	0	0	0	0	0	0	0
1.292377203354526	0	0	0	0	0	0	0	0	0	0	0	0	0	0	0	0	0	0
